<svg viewBox="-2 -2 264 194" style="max-width: 600px" xmlns="http://www.w3.org/2000/svg" xmlns:xlink="http://www.w3.org/1999/xlink">
<g id="view" transform="translate(-297.5000000000001,-174.16666666666669) scale(3.166666666666666)">
  
  <g id="grid">
    <rect x="0" y="0" width="264" height="194" fill="white"/>
  <line x1="0" x2="0" y1="0" y2="190"/>
<line x1="10" x2="10" y1="0" y2="190"/>
<line x1="20" x2="20" y1="0" y2="190"/>
<line x1="30" x2="30" y1="0" y2="190"/>
<line x1="40" x2="40" y1="0" y2="190"/>
<line x1="50" x2="50" y1="0" y2="190"/>
<line x1="60" x2="60" y1="0" y2="190"/>
<line x1="70" x2="70" y1="0" y2="190"/>
<line x1="80" x2="80" y1="0" y2="190"/>
<line x1="90" x2="90" y1="0" y2="190"/>
<line x1="100" x2="100" y1="0" y2="190"/>
<line x1="110" x2="110" y1="0" y2="190"/>
<line x1="120" x2="120" y1="0" y2="190"/>
<line x1="130" x2="130" y1="0" y2="190"/>
<line x1="140" x2="140" y1="0" y2="190"/>
<line x1="150" x2="150" y1="0" y2="190"/>
<line x1="160" x2="160" y1="0" y2="190"/>
<line x1="170" x2="170" y1="0" y2="190"/>
<line x1="180" x2="180" y1="0" y2="190"/>
<line x1="190" x2="190" y1="0" y2="190"/>
<line x1="200" x2="200" y1="0" y2="190"/>
<line x1="210" x2="210" y1="0" y2="190"/>
<line x1="220" x2="220" y1="0" y2="190"/>
<line x1="230" x2="230" y1="0" y2="190"/>
<line x1="240" x2="240" y1="0" y2="190"/>
<line x1="250" x2="250" y1="0" y2="190"/>
<line x1="260" x2="260" y1="0" y2="190"/>
  <line x1="0" x2="260" y1="0" y2="0"/>
<line x1="0" x2="260" y1="10" y2="10"/>
<line x1="0" x2="260" y1="20" y2="20"/>
<line x1="0" x2="260" y1="30" y2="30"/>
<line x1="0" x2="260" y1="40" y2="40"/>
<line x1="0" x2="260" y1="50" y2="50"/>
<line x1="0" x2="260" y1="60" y2="60"/>
<line x1="0" x2="260" y1="70" y2="70"/>
<line x1="0" x2="260" y1="80" y2="80"/>
<line x1="0" x2="260" y1="90" y2="90"/>
<line x1="0" x2="260" y1="100" y2="100"/>
<line x1="0" x2="260" y1="110" y2="110"/>
<line x1="0" x2="260" y1="120" y2="120"/>
<line x1="0" x2="260" y1="130" y2="130"/>
<line x1="0" x2="260" y1="140" y2="140"/>
<line x1="0" x2="260" y1="150" y2="150"/>
<line x1="0" x2="260" y1="160" y2="160"/>
<line x1="0" x2="260" y1="170" y2="170"/>
<line x1="0" x2="260" y1="180" y2="180"/>
<line x1="0" x2="260" y1="190" y2="190"/>
  </g>

  <g id="start">
    <rect class="bbox1" x="10" y="10" width="40" height="40"/>
    <circle cx="30" cy="30" r="13"/>
  </g>

  <g id="end">
    <rect class="bbox2" x="105" y="55" width="60" height="60"/>
    <g transform="translate(135, 85)">
      <path d="M0,-28.314868574237753L6.357084071503433,-8.749775582932603L26.92904026556968,-8.749775582932605L10.285978097033123,3.342116878746329L16.64306216853656,22.907209870051478L2.6645352591003757e-15,10.815317408372547L-16.643062168536552,22.90720987005148L-10.285978097033121,3.342116878746331L-26.929040265569682,-8.749775582932598L-6.357084071503435,-8.749775582932601Z"/>
    </g>
  </g>

  <style>
    svg #grid line { stroke: #aaa; stroke-width: 0.5 }
    svg .bbox1 { stroke: red; stroke-width: 1; fill: none }
    svg .bbox2 { stroke: blue; stroke-width: 1; fill: none }
    svg * { vector-effect: non-scaling-stroke }
  </style>

</g>
</svg>